# xmcd
#
# Track frame offsets: 
#        150
#        20556
#        32861
#        55733
#        74906
#        95803
#        132617
#        160327
#        184115
#        201097
#        232154
#
# Disc length: 3294 seconds
#
# Revision: 0
# Processed by: cddbd v1.5.2PL0 Copyright (c) Steve Scherf et al.
# Submitted via: ExactAudioCopy v0.95a3
#
DISCID=ab0cdc0b
DTITLE=JOE BONAMASSA AND BETH HART - DONT EXPLAIN
DYEAR=2010
DGENRE=Blues
TTITLE0=Sinner's Prayer
TTITLE1=Chocolate Jesus
TTITLE2=Your Heart is As Black As Night
TTITLE3=For My Friends
TTITLE4=Don't Explain
TTITLE5=I'd Rather Go Blind
TTITLE6=Something's Got a Hold On Me
TTITLE7=I'll Take Care of You
TTITLE8=Well, Well
TTITLE9=Ain't No Way
TTITLE10=I'll Take Care of You (Radio Edit/Bonus Track)
EXTD=
EXTT0=
EXTT1=
EXTT2=
EXTT3=
EXTT4=
EXTT5=
EXTT6=
EXTT7=
EXTT8=
EXTT9=
EXTT10=
PLAYORDER=
